<?xml version="1.0" standalone="no"?>
<!DOCTYPE svg PUBLIC "-//W3C//DTD SVG 20010904//EN"
 "http://www.w3.org/TR/2001/REC-SVG-20010904/DTD/svg10.dtd">
<svg version="1.0" xmlns="http://www.w3.org/2000/svg"
 width="400.000000pt" height="400.000000pt" viewBox="0 0 400.000000 400.000000"
 preserveAspectRatio="xMidYMid meet">
<metadata>
Created by potrace 1.11, written by Peter Selinger 2001-2013
</metadata>
<g transform="translate(0.000000,400.000000) scale(0.100000,-0.100000)"
fill="#000000" stroke="none">
<path d="M0 3196 c0 -442 4 -806 9 -808 4 -1 11 -147 14 -323 8 -380 14 -422
88 -580 52 -110 114 -165 187 -165 73 0 236 113 394 273 115 116 119 119 152
113 30 -6 37 -12 45 -43 7 -26 7 -41 -1 -50 -8 -10 -6 -13 11 -13 19 0 21 4
15 43 -3 23 -8 48 -10 55 -2 8 7 27 21 44 18 21 25 41 25 69 0 22 6 47 14 55
17 16 30 19 21 4 -3 -5 -1 -10 5 -10 6 0 9 -4 6 -8 -2 -4 7 -9 22 -10 l27 -2
-28 25 c-32 30 -31 29 -12 49 17 16 45 11 45 -8 1 -6 24 -21 53 -34 98 -43
122 -58 121 -74 -1 -10 7 -16 22 -15 25 0 32 11 14 22 -5 3 -10 12 -9 18 0 9
2 9 6 0 2 -7 10 -13 18 -13 7 0 18 -7 25 -15 23 -28 46 -18 46 19 -1 23 -5 32
-14 29 -7 -3 -10 -13 -7 -24 8 -25 -11 -24 -25 0 -14 26 -13 31 5 25 8 -4 15
-1 15 6 0 9 10 11 31 6 26 -5 29 -3 20 7 -16 20 -3 27 26 16 35 -13 43 -11 43
11 0 27 48 27 83 0 28 -22 27 -53 -1 -43 -9 4 -14 3 -10 -2 4 -4 24 -9 45 -11
21 -2 65 -8 97 -13 36 -6 66 -6 76 -1 10 5 20 7 24 5 3 -3 4 -2 1 1 -7 10 41
44 62 43 14 0 14 -2 3 -6 -17 -7 -45 -33 -35 -33 4 0 22 7 41 16 32 16 36 15
54 -1 11 -10 20 -25 21 -34 0 -12 2 -11 8 4 5 13 3 25 -7 35 -14 13 -12 15 17
18 19 2 38 -1 44 -7 14 -14 74 -15 79 -2 2 6 31 14 66 20 34 5 67 13 72 16 6
4 7 23 4 46 -8 50 4 50 50 1 48 -50 108 -167 112 -218 4 -40 18 -79 49 -134 8
-14 12 -33 9 -43 -3 -10 2 -29 11 -43 9 -14 14 -32 11 -40 -3 -9 -1 -12 4 -9
6 3 10 0 10 -7 0 -7 12 -49 26 -93 14 -44 27 -94 27 -112 1 -17 5 -29 9 -27 4
3 10 -8 14 -23 4 -15 9 -32 12 -37 3 -5 7 -60 8 -122 4 -119 16 -213 39 -304
8 -31 19 -89 25 -130 19 -139 67 -241 124 -265 18 -8 39 -22 47 -31 17 -21 84
-51 124 -56 17 -1 41 -10 55 -18 51 -31 109 -75 110 -84 0 -16 62 -86 75 -86
8 0 18 -8 24 -17 9 -17 11 -17 40 0 29 17 30 17 77 -13 36 -23 60 -30 96 -30
47 0 55 7 49 43 -2 11 17 9 24 -3 3 -6 2 -10 -3 -10 -5 0 -9 -7 -9 -15 0 -13
37 -15 284 -15 l283 1 0 79 c0 43 -4 82 -10 85 -5 3 -10 13 -10 21 0 8 5 12
10 9 7 -4 10 129 10 392 0 249 -4 393 -10 383 -5 -8 -12 -12 -15 -9 -9 9 6 40
16 33 5 -3 9 24 9 60 0 42 -4 66 -12 69 -10 4 -10 7 0 18 16 17 16 56 0 63
-10 5 -10 7 -1 12 10 4 13 59 13 220 l-1 214 -24 0 c-14 0 -25 5 -25 11 0 7
10 9 25 7 14 -3 25 -1 25 3 0 5 -5 9 -12 9 -9 0 -9 3 0 12 15 15 16 90 1 105
-8 8 -8 13 0 17 7 4 11 43 11 97 0 58 -4 88 -10 84 -5 -3 -10 -1 -10 4 0 6 4
11 10 11 5 0 9 11 8 25 -1 14 -8 25 -15 25 -7 0 -13 5 -13 10 0 6 7 10 15 10
13 0 15 89 15 743 l0 744 -57 -9 c-32 -5 -114 -22 -183 -38 -69 -16 -179 -41
-245 -55 -66 -14 -149 -35 -185 -46 -160 -50 -405 -109 -457 -109 -12 0 -35 8
-53 18 -31 17 -31 17 -51 -8 -13 -15 -19 -33 -16 -50 5 -26 -29 -96 -102 -210
-20 -30 -36 -65 -36 -77 -1 -12 1 -20 4 -18 2 3 13 -12 23 -32 17 -35 18 -27
1 14 -4 9 21 -4 54 -30 67 -51 73 -54 73 -32 0 15 30 35 52 35 8 -1 6 -6 -6
-15 -19 -14 -18 -15 16 -15 20 0 39 -6 41 -12 3 -8 6 -6 6 5 1 9 -6 17 -14 17
-8 0 -15 5 -15 11 0 23 59 -10 60 -33 0 -11 -36 -28 -43 -21 -4 3 -12 1 -19
-5 -9 -7 -19 -6 -32 4 -11 8 -23 14 -28 14 -18 0 -6 -16 30 -41 49 -34 152
-80 146 -66 -3 9 24 12 95 13 78 1 104 5 116 18 21 20 20 20 22 -6 4 -45 46
-50 68 -8 18 34 23 38 21 13 -1 -13 5 -17 18 -15 11 2 26 -4 33 -14 7 -10 13
-13 13 -7 0 6 9 9 20 6 11 -3 20 -9 20 -14 0 -14 20 -10 37 7 9 8 21 13 29 10
7 -3 18 2 24 10 15 17 25 18 42 1 7 -7 24 -18 38 -25 52 -25 88 -49 119 -77
18 -17 43 -39 55 -50 12 -11 30 -19 39 -17 12 2 15 -1 11 -12 -3 -9 -10 -13
-15 -10 -5 3 -9 0 -9 -6 0 -7 7 -10 15 -6 8 3 22 -3 31 -12 20 -19 50 -39 76
-48 10 -3 16 -10 13 -14 -3 -4 9 -10 25 -14 17 -3 29 -11 28 -18 -2 -7 2 -12
8 -11 14 3 13 -29 -1 -39 -6 -5 -5 -18 2 -39 12 -31 11 -33 -55 -98 -37 -37
-98 -88 -137 -115 -155 -106 -270 -178 -353 -222 -48 -26 -116 -63 -152 -82
-90 -48 -238 -104 -253 -95 -21 13 -56 12 -68 -3 -6 -8 -20 -14 -31 -14 -15 0
-18 -3 -10 -12 8 -10 4 -13 -15 -15 -14 0 -28 -5 -32 -10 -12 -18 -113 -57
-198 -77 -38 -8 -65 -10 -71 -4 -8 8 -31 12 -100 17 -7 1 -10 6 -6 12 4 8 -1
9 -16 4 -15 -5 -20 -4 -16 4 4 6 2 11 -3 11 -6 0 -11 13 -11 28 0 16 -9 39
-20 52 -28 32 -25 48 3 22 26 -25 57 -31 38 -9 -8 10 -7 17 1 25 9 9 7 15 -8
27 -10 8 -24 13 -30 11 -6 -2 -9 10 -7 30 1 20 -2 32 -7 29 -6 -4 -10 0 -10 8
0 8 -13 20 -30 27 -16 7 -30 17 -30 22 0 5 -5 6 -10 3 -6 -3 -10 -2 -10 4 0 5
-21 20 -46 32 -74 37 -73 38 76 58 62 8 63 9 20 11 -25 1 -48 2 -52 1 -32 -4
-202 -13 -333 -18 -156 -5 -161 -4 -189 18 -19 15 -40 22 -58 20 -16 -1 -40 4
-53 13 -13 9 -31 16 -40 16 -8 0 -15 6 -15 13 0 9 -17 12 -64 10 -47 -2 -67 1
-76 12 -7 8 -24 15 -39 15 -37 1 -63 23 -58 51 2 13 2 18 0 12 -3 -10 -7 -10
-18 0 -7 6 -11 15 -8 20 4 7 -12 24 -85 90 -10 8 -27 27 -39 41 -16 20 -18 26
-7 26 8 0 26 12 39 28 13 15 25 21 25 15 0 -21 54 -15 73 7 22 26 21 30 -4 30
-13 0 -18 4 -13 12 5 8 2 9 -10 5 -11 -4 -15 -3 -11 4 4 6 13 8 19 6 18 -7 30
3 49 45 10 20 22 40 28 43 7 5 6 12 -2 21 -9 12 -18 6 -51 -31 -27 -31 -52
-48 -80 -56 -38 -10 -43 -9 -60 13 -11 14 -18 40 -18 68 l1 45 27 -31 c36 -42
69 -49 110 -24 42 26 56 62 41 107 -19 58 -66 75 -134 48 -15 -6 -13 -1 10 25
28 30 163 105 173 95 2 -2 1 -12 -3 -22 -4 -10 -8 -52 -10 -93 -1 -41 -6 -87
-10 -102 -6 -22 -4 -28 8 -28 10 0 15 7 12 19 -2 11 1 48 6 83 22 136 22 166
0 173 -12 3 -37 -3 -60 -15 -53 -27 -66 -25 -39 5 12 14 28 25 35 25 17 0 17
8 -2 26 -14 14 -56 11 -80 -6 -5 -4 -22 -10 -37 -14 -28 -6 -98 -100 -98 -131
0 -8 -4 -15 -8 -15 -13 0 -31 -95 -33 -170 -3 -101 0 -146 9 -133 5 8 8 -1 8
-21 l0 -33 -45 10 c-63 13 -101 43 -101 80 0 15 -5 37 -10 48 -7 13 -7 19 0
19 5 0 10 5 10 10 0 6 -7 10 -15 10 -20 0 -20 51 0 89 8 16 11 31 8 35 -4 3
-1 6 5 6 7 0 12 12 12 28 0 31 31 102 59 138 11 14 18 31 15 38 -5 12 52 76
68 76 4 0 8 7 8 15 0 8 9 24 20 35 30 30 16 41 -45 38 -30 -1 -52 -4 -50 -6 2
-3 -14 -18 -36 -34 -36 -26 -89 -111 -89 -144 0 -6 -11 -21 -25 -34 -14 -13
-25 -32 -25 -42 0 -10 -4 -18 -10 -18 -5 0 -10 -7 -10 -15 0 -20 -39 -14 -56
10 -8 10 -13 45 -13 84 0 36 -7 99 -15 139 -8 40 -12 80 -9 89 4 10 2 14 -4
10 -11 -7 -33 34 -33 61 0 10 -6 24 -12 30 -9 9 -9 15 -3 20 18 12 32 56 29
90 -1 17 2 32 7 32 5 0 9 7 9 16 0 8 7 22 16 31 14 14 16 14 21 -6 3 -11 8
-21 12 -21 14 0 31 25 31 44 1 26 18 49 50 66 14 7 31 22 39 33 14 19 15 19
28 2 12 -17 13 -17 13 8 0 15 5 27 10 27 6 0 10 5 10 11 0 7 16 27 35 46 26
25 40 32 58 28 21 -6 25 -1 36 34 13 44 29 60 41 42 4 -7 11 -11 16 -10 29 5
32 -4 31 -104 -1 -125 6 -139 91 -183 19 -10 26 3 15 28 -6 15 -5 44 4 92 7
39 17 105 22 146 5 41 14 76 20 78 6 2 11 10 11 18 0 19 16 18 24 -1 5 -14 9
-14 38 1 18 9 40 23 49 31 15 13 19 11 33 -18 20 -40 20 -43 0 -35 -8 3 -12 2
-9 -4 3 -6 -4 -10 -15 -10 -14 0 -24 -8 -27 -21 -3 -12 -11 -18 -19 -15 -10 4
-15 -9 -20 -44 -4 -29 -14 -56 -25 -66 -43 -39 -1 -240 69 -331 26 -35 79 -69
90 -59 3 3 0 6 -7 6 -7 0 -9 5 -5 11 4 8 9 8 17 0 6 -6 30 -11 53 -11 39 0 43
2 49 30 4 17 10 30 15 30 5 0 15 12 23 28 40 76 45 83 52 72 6 -9 10 -9 16 1
23 37 -4 39 -45 4 -32 -28 -66 -33 -66 -11 0 22 19 30 35 16 11 -9 15 -9 15
-1 0 6 -4 11 -10 11 -17 0 -11 18 13 40 12 12 23 27 23 33 1 7 2 18 3 25 2 19
29 14 36 -7 3 -11 3 -32 0 -48 -6 -27 -6 -27 9 -9 19 24 21 57 4 74 -7 7 -8
12 -2 12 15 0 4 61 -12 67 -7 2 -10 11 -8 18 3 7 -5 19 -18 26 -29 15 -39 30
-33 48 3 8 0 18 -7 22 -10 6 -10 11 -1 20 10 10 21 10 48 2 20 -7 37 -7 41 -2
3 5 -1 9 -8 9 -7 0 -37 11 -66 25 l-54 25 7 105 7 105 -851 0 -851 0 0 -804z
m1560 611 c0 -5 -4 -5 -10 -2 -5 3 -10 14 -10 23 0 15 2 15 10 2 5 -8 10 -19
10 -23z m119 -183 c28 -23 31 -31 31 -84 0 -32 -4 -62 -10 -65 -6 -4 -10 5
-10 20 0 16 -12 38 -29 55 -24 24 -35 28 -70 25 l-41 -4 17 29 c16 27 45 48
70 49 6 1 25 -11 42 -25z m-752 -77 c-6 -12 -13 -24 -15 -27 -2 -2 -7 2 -11 9
-5 8 -3 21 7 32 21 24 35 14 19 -14z m633 -149 c28 -20 31 -21 70 -5 l41 16
-32 -42 c-62 -81 -82 -86 -98 -23 -6 24 -13 51 -17 60 -8 22 1 20 36 -6z m136
-52 c18 -14 18 -15 2 -21 -10 -4 -18 -13 -18 -21 0 -9 -9 -13 -25 -12 -23 2
-37 18 -16 18 5 0 12 11 15 25 7 29 15 31 42 11z m1104 -416 c0 -5 -2 -10 -4
-10 -3 0 -8 5 -11 10 -3 6 -1 10 4 10 6 0 11 -4 11 -10z m171 -64 c-9 -10 -8
-15 4 -20 21 -8 19 -24 -6 -31 -26 -9 -109 3 -109 15 0 5 21 12 46 16 25 3 48
13 51 20 3 8 10 14 15 14 7 0 6 -5 -1 -14z m-1731 -33 c-1 -17 -40 -54 -50
-48 -6 3 -8 11 -4 16 3 5 10 6 16 3 7 -5 9 -2 5 8 -3 9 -3 19 0 22 9 9 33 7
33 -1z m1777 -29 c-3 -3 -12 -4 -19 -1 -8 3 -5 6 6 6 11 1 17 -2 13 -5z
m-1803 -460 c9 -3 16 -11 16 -17 0 -6 7 -19 17 -29 15 -17 15 -18 -10 -18 -19
0 -27 5 -27 18 0 10 -3 13 -8 6 -4 -6 -13 -4 -24 8 -17 17 -17 18 5 18 18 0
19 2 7 10 -17 11 -1 13 24 4z m122 -88 c8 -9 10 -17 5 -21 -6 -3 -15 4 -21 15
-12 23 -5 26 16 6z m2639 -156 c3 -5 -1 -10 -9 -10 -8 0 -18 5 -21 10 -3 6 1
10 9 10 8 0 18 -4 21 -10z m-2510 -20 c8 -13 -5 -13 -25 0 -13 8 -13 10 2 10
9 0 20 -4 23 -10z m262 -16 c-3 -3 -12 -4 -19 -1 -8 3 -5 6 6 6 11 1 17 -2 13
-5z m40 -10 c-3 -3 -12 -4 -19 -1 -8 3 -5 6 6 6 11 1 17 -2 13 -5z m1989 -51
c-11 -11 -19 6 -11 24 8 17 8 17 12 0 3 -10 2 -21 -1 -24z m-31 17 c-3 -5 -10
-10 -16 -10 -5 0 -9 5 -9 10 0 6 7 10 16 10 8 0 12 -4 9 -10z m75 -16 c0 -8
-4 -14 -10 -14 -5 0 -10 9 -10 21 0 11 5 17 10 14 6 -3 10 -13 10 -21z m40 7
c0 -6 -4 -13 -10 -16 -5 -3 -10 1 -10 9 0 9 5 16 10 16 6 0 10 -4 10 -9z m75
0 c3 -5 1 -12 -5 -16 -5 -3 -10 1 -10 9 0 18 6 21 15 7z m-35 -5 c0 -3 -4 -8
-10 -11 -5 -3 -10 -1 -10 4 0 6 5 11 10 11 6 0 10 -2 10 -4z m80 0 c0 -3 -4
-8 -10 -11 -5 -3 -10 -1 -10 4 0 6 5 11 10 11 6 0 10 -2 10 -4z m-317 -53 c-7
-2 -19 -2 -25 0 -7 3 -2 5 12 5 14 0 19 -2 13 -5z m180 0 c-7 -2 -19 -2 -25 0
-7 3 -2 5 12 5 14 0 19 -2 13 -5z m-158 -23 c3 -5 -3 -10 -15 -10 -12 0 -18 5
-15 10 3 6 10 10 15 10 5 0 12 -4 15 -10z m120 0 c3 -5 -3 -10 -15 -10 -12 0
-18 5 -15 10 3 6 10 10 15 10 5 0 12 -4 15 -10z m122 -6 c-3 -3 -12 -4 -19 -1
-8 3 -5 6 6 6 11 1 17 -2 13 -5z m-217 -24 c0 -5 -6 -10 -14 -10 -8 0 -18 5
-21 10 -3 6 3 10 14 10 12 0 21 -4 21 -10z m60 0 c0 -5 -6 -10 -14 -10 -8 0
-18 5 -21 10 -3 6 3 10 14 10 12 0 21 -4 21 -10z m-43 -26 c-3 -3 -12 -4 -19
-1 -8 3 -5 6 6 6 11 1 17 -2 13 -5z m-1319 -41 c-2 -9 -8 -18 -15 -20 -7 -3
-9 3 -6 16 6 25 26 28 21 4z m1212 -8 c0 -8 -4 -15 -10 -15 -5 0 -7 7 -4 15 4
8 8 15 10 15 2 0 4 -7 4 -15z m-228 -17 c-7 -7 -12 -8 -12 -2 0 14 12 26 19
19 2 -3 -1 -11 -7 -17z m35 0 c-3 -8 -6 -5 -6 6 -1 11 2 17 5 13 3 -3 4 -12 1
-19z m76 7 c-3 -9 -8 -14 -10 -11 -3 3 -2 9 2 15 9 16 15 13 8 -4z m41 0 c-4
-8 -8 -15 -10 -15 -2 0 -4 7 -4 15 0 8 4 15 10 15 5 0 7 -7 4 -15z m116 5 c0
-5 -5 -10 -11 -10 -5 0 -7 5 -4 10 3 6 8 10 11 10 2 0 4 -4 4 -10z m40 1 c0
-6 -4 -13 -10 -16 -5 -3 -10 1 -10 9 0 9 5 16 10 16 6 0 10 -4 10 -9z m34 -6
c-4 -8 -8 -15 -10 -15 -2 0 -4 7 -4 15 0 8 4 15 10 15 5 0 7 -7 4 -15z m40 0
c-4 -8 -8 -15 -10 -15 -2 0 -4 7 -4 15 0 8 4 15 10 15 5 0 7 -7 4 -15z m40 0
c-4 -8 -8 -15 -10 -15 -2 0 -4 7 -4 15 0 8 4 15 10 15 5 0 7 -7 4 -15z m39 0
c-3 -9 -8 -14 -10 -11 -3 3 -2 9 2 15 9 16 15 13 8 -4z m47 6 c0 -6 -4 -13
-10 -16 -5 -3 -10 1 -10 9 0 9 5 16 10 16 6 0 10 -4 10 -9z m36 -18 c-10 -10
-19 5 -10 18 6 11 8 11 12 0 2 -7 1 -15 -2 -18z m40 0 c-10 -10 -19 5 -10 18
6 11 8 11 12 0 2 -7 1 -15 -2 -18z m-3033 -7 c-5 -24 -48 -55 -60 -43 -7 7 45
67 57 67 4 0 5 -11 3 -24z m2410 -33 c-7 -2 -19 -2 -25 0 -7 3 -2 5 12 5 14 0
19 -2 13 -5z m237 3 c0 -11 -19 -15 -25 -6 -3 5 1 10 9 10 9 0 16 -2 16 -4z
m127 -12 c-3 -3 -12 -4 -19 -1 -8 3 -5 6 6 6 11 1 17 -2 13 -5z m126 -1 c-7
-2 -19 -2 -25 0 -7 3 -2 5 12 5 14 0 19 -2 13 -5z m-463 -19 c0 -2 -7 -4 -15
-4 -8 0 -15 4 -15 10 0 5 7 7 15 4 8 -4 15 -8 15 -10z m90 6 c0 -5 -7 -10 -15
-10 -8 0 -15 5 -15 10 0 6 7 10 15 10 8 0 15 -4 15 -10z m-250 -10 c0 -5 -7
-10 -16 -10 -8 0 -12 5 -9 10 3 6 10 10 16 10 5 0 9 -4 9 -10z m333 3 c-7 -2
-19 -2 -25 0 -7 3 -2 5 12 5 14 0 19 -2 13 -5z m187 -3 c0 -5 -5 -10 -11 -10
-5 0 -7 5 -4 10 3 6 8 10 11 10 2 0 4 -4 4 -10z m132 -12 c-9 -9 -15 -9 -24 0
-9 9 -7 12 12 12 19 0 21 -3 12 -12z m98 2 c0 -5 -4 -10 -9 -10 -6 0 -13 5
-16 10 -3 6 1 10 9 10 9 0 16 -4 16 -10z m-560 -10 c0 -5 -7 -10 -15 -10 -8 0
-15 5 -15 10 0 6 7 10 15 10 8 0 15 -4 15 -10z m-130 -15 c0 -8 -4 -15 -10
-15 -5 0 -10 7 -10 15 0 8 5 15 10 15 6 0 10 -7 10 -15z m243 8 c-7 -2 -19 -2
-25 0 -7 3 -2 5 12 5 14 0 19 -2 13 -5z m124 1 c-3 -3 -12 -4 -19 -1 -8 3 -5
6 6 6 11 1 17 -2 13 -5z m-430 -10 c-3 -3 -12 -4 -19 -1 -8 3 -5 6 6 6 11 1
17 -2 13 -5z m560 0 c-3 -3 -12 -4 -19 -1 -8 3 -5 6 6 6 11 1 17 -2 13 -5z
m133 -4 c0 -5 -6 -10 -14 -10 -8 0 -18 5 -21 10 -3 6 3 10 14 10 12 0 21 -4
21 -10z m-600 -26 c0 -8 -4 -14 -10 -14 -5 0 -10 9 -10 21 0 11 5 17 10 14 6
-3 10 -13 10 -21z m135 16 c3 -5 -3 -10 -14 -10 -12 0 -21 5 -21 10 0 6 6 10
14 10 8 0 18 -4 21 -10z m55 0 c0 -5 -7 -10 -15 -10 -8 0 -15 5 -15 10 0 6 7
10 15 10 8 0 15 -4 15 -10z m117 -6 c-3 -3 -12 -4 -19 -1 -8 3 -5 6 6 6 11 1
17 -2 13 -5z m-402 -14 c3 -5 1 -10 -4 -10 -6 0 -11 5 -11 10 0 6 2 10 4 10 3
0 8 -4 11 -10z m598 3 c-7 -2 -19 -2 -25 0 -7 3 -2 5 12 5 14 0 19 -2 13 -5z
m137 -3 c0 -5 -9 -10 -19 -10 -11 0 -23 5 -26 10 -4 6 5 10 19 10 14 0 26 -4
26 -10z m-613 -32 c-3 -7 -5 -2 -5 12 0 14 2 19 5 13 2 -7 2 -19 0 -25z m138
22 c-3 -5 -12 -7 -20 -3 -21 7 -19 13 6 13 11 0 18 -4 14 -10z m-460 -10 c3
-5 -3 -10 -15 -10 -12 0 -18 5 -15 10 3 6 10 10 15 10 5 0 12 -4 15 -10z m832
-6 c-3 -3 -12 -4 -19 -1 -8 3 -5 6 6 6 11 1 17 -2 13 -5z m133 -4 c0 -5 -6
-10 -14 -10 -8 0 -18 5 -21 10 -3 6 3 10 14 10 12 0 21 -4 21 -10z m-753 -6
c-3 -3 -12 -4 -19 -1 -8 3 -5 6 6 6 11 1 17 -2 13 -5z m153 -15 c0 -5 -4 -9
-10 -9 -5 0 -10 7 -10 16 0 8 5 12 10 9 6 -3 10 -10 10 -16z m-443 -11 c-3 -8
-6 -5 -6 6 -1 11 2 17 5 13 3 -3 4 -12 1 -19z m83 2 c0 -5 -7 -10 -15 -10 -8
0 -15 5 -15 10 0 6 7 10 15 10 8 0 15 -4 15 -10z m470 -10 c0 -15 -7 -20 -25
-20 -14 0 -25 5 -25 10 0 6 7 10 15 10 8 0 15 5 15 10 0 6 5 10 10 10 6 0 10
-9 10 -20z m40 5 c0 -8 -4 -15 -10 -15 -5 0 -10 7 -10 15 0 8 5 15 10 15 6 0
10 -7 10 -15z m40 0 c0 -8 -4 -15 -9 -15 -5 0 -11 7 -15 15 -3 9 0 15 9 15 8
0 15 -7 15 -15z m38 -8 c5 -24 -15 -21 -21 4 -3 13 -1 19 6 16 7 -2 13 -11 15
-20z m36 7 c4 -9 4 -19 2 -21 -8 -8 -26 8 -26 23 0 19 16 18 24 -2z m40 0 c4
-9 4 -19 2 -21 -8 -8 -26 8 -26 23 0 19 16 18 24 -2z m-616 -19 c-3 -3 -9 2
-12 12 -6 14 -5 15 5 6 7 -7 10 -15 7 -18z m172 15 c0 -5 -7 -10 -15 -10 -8 0
-15 5 -15 10 0 6 7 10 15 10 8 0 15 -4 15 -10z m80 -6 c0 -8 -4 -12 -10 -9 -5
3 -10 10 -10 16 0 5 5 9 10 9 6 0 10 -7 10 -16z m90 0 c0 -8 -4 -12 -10 -9 -5
3 -10 10 -10 16 0 5 5 9 10 9 6 0 10 -7 10 -16z m314 1 c3 -9 0 -15 -9 -15 -8
0 -15 7 -15 15 0 8 4 15 9 15 5 0 11 -7 15 -15z m39 1 c6 -16 -2 -28 -14 -20
-12 7 -11 34 0 34 5 0 11 -6 14 -14z m41 -2 c9 -22 8 -24 -9 -24 -8 0 -15 9
-15 20 0 24 15 27 24 4z m40 0 c9 -22 8 -24 -9 -24 -8 0 -15 9 -15 20 0 24 15
27 24 4z m39 -4 c3 -13 0 -20 -9 -20 -8 0 -14 9 -14 20 0 11 4 20 9 20 5 0 11
-9 14 -20z m-988 0 c3 -5 1 -10 -4 -10 -6 0 -11 5 -11 10 0 6 2 10 4 10 3 0 8
-4 11 -10z m67 -8 c-7 -2 -12 -11 -12 -20 0 -12 -3 -13 -11 -5 -13 13 10 45
26 35 5 -3 4 -7 -3 -10z m966 0 c2 -7 -3 -12 -12 -12 -9 0 -16 7 -16 16 0 17
22 14 28 -4z m39 3 c8 -22 -6 -33 -17 -15 -13 20 -12 30 0 30 6 0 13 -7 17
-15z m43 -5 c0 -11 -4 -20 -10 -20 -5 0 -10 2 -10 4 0 2 -3 11 -6 20 -4 11 -1
16 10 16 9 0 16 -8 16 -20z m-980 0 c0 -5 -7 -10 -15 -10 -8 0 -15 5 -15 10 0
6 7 10 15 10 8 0 15 -4 15 -10z m360 -23 c0 -5 -4 -5 -10 -2 -5 3 -10 14 -10
23 0 15 2 15 10 2 5 -8 10 -19 10 -23z m-153 7 c-3 -3 -12 -4 -19 -1 -8 3 -5
6 6 6 11 1 17 -2 13 -5z m-207 -14 c0 -5 -7 -10 -15 -10 -8 0 -15 5 -15 10 0
6 7 10 15 10 8 0 15 -4 15 -10z m330 -6 c0 -8 -4 -12 -10 -9 -5 3 -10 10 -10
16 0 5 5 9 10 9 6 0 10 -7 10 -16z m130 6 c0 -5 -9 -10 -20 -10 -11 0 -20 5
-20 10 0 6 9 10 20 10 11 0 20 -4 20 -10z m125 0 c3 -5 -3 -10 -14 -10 -12 0
-21 5 -21 10 0 6 6 10 14 10 8 0 18 -4 21 -10z m-685 -15 c0 -8 -2 -15 -4 -15
-2 0 -6 7 -10 15 -3 8 -1 15 4 15 6 0 10 -7 10 -15z m315 -5 c-3 -5 -10 -10
-16 -10 -5 0 -9 5 -9 10 0 6 7 10 16 10 8 0 12 -4 9 -10z m625 1 c0 -5 -9 -7
-20 -4 -11 3 -20 7 -20 9 0 2 9 4 20 4 11 0 20 -4 20 -9z m-830 -11 c0 -5 -7
-10 -15 -10 -8 0 -15 5 -15 10 0 6 7 10 15 10 8 0 15 -4 15 -10z m287 -12 c-3
-8 -6 -5 -6 6 -1 11 2 17 5 13 3 -3 4 -12 1 -19z m163 12 c0 -5 -9 -10 -20
-10 -11 0 -20 5 -20 10 0 6 9 10 20 10 11 0 20 -4 20 -10z m160 0 c0 -5 -6
-10 -14 -10 -8 0 -18 5 -21 10 -3 6 3 10 14 10 12 0 21 -4 21 -10z m85 0 c3
-5 -1 -10 -10 -10 -9 0 -13 5 -10 10 3 6 8 10 10 10 2 0 7 -4 10 -10z m262 4
c-3 -3 -12 -4 -19 -1 -8 3 -5 6 6 6 11 1 17 -2 13 -5z m-1090 -26 c-3 -8 -6
-5 -6 6 -1 11 2 17 5 13 3 -3 4 -12 1 -19z m928 12 c3 -5 -3 -10 -15 -10 -12
0 -18 5 -15 10 3 6 10 10 15 10 5 0 12 -4 15 -10z m-758 -22 c-3 -8 -6 -5 -6
6 -1 11 2 17 5 13 3 -3 4 -12 1 -19z m220 -10 c-3 -7 -5 -2 -5 12 0 14 2 19 5
13 2 -7 2 -19 0 -25z m-50 16 c-3 -3 -12 -4 -19 -1 -8 3 -5 6 6 6 11 1 17 -2
13 -5z m290 -16 c-3 -8 -6 -5 -6 6 -1 11 2 17 5 13 3 -3 4 -12 1 -19z m143 12
c12 -8 11 -10 -7 -10 -13 0 -23 5 -23 10 0 13 11 13 30 0z m-640 -10 c0 -5 -4
-10 -9 -10 -6 0 -13 5 -16 10 -3 6 1 10 9 10 9 0 16 -4 16 -10z m450 0 c0 -5
-6 -10 -14 -10 -8 0 -18 5 -21 10 -3 6 3 10 14 10 12 0 21 -4 21 -10z m320 0
c12 -8 11 -10 -7 -10 -13 0 -23 5 -23 10 0 13 11 13 30 0z m-703 -22 c-3 -8
-6 -5 -6 6 -1 11 2 17 5 13 3 -3 4 -12 1 -19z m280 0 c-3 -8 -6 -5 -6 6 -1 11
2 17 5 13 3 -3 4 -12 1 -19z m553 18 c0 -2 -7 -6 -15 -10 -8 -3 -15 -1 -15 4
0 6 7 10 15 10 8 0 15 -2 15 -4z m-693 -12 c-3 -3 -12 -4 -19 -1 -8 3 -5 6 6
6 11 1 17 -2 13 -5z m326 -19 c-7 -21 -13 -19 -13 6 0 11 4 18 10 14 5 -3 7
-12 3 -20z m-523 5 c0 -5 -7 -10 -15 -10 -8 0 -15 5 -15 10 0 6 7 10 15 10 8
0 15 -4 15 -10z m86 -27 c-11 -11 -19 6 -11 24 8 17 8 17 12 0 3 -10 2 -21 -1
-24z m352 16 c-19 -13 -28 -11 -28 5 0 9 7 12 21 9 16 -4 17 -8 7 -14z m225
14 c-7 -2 -19 -2 -25 0 -7 3 -2 5 12 5 14 0 19 -2 13 -5z m72 -3 c3 -5 -3 -10
-14 -10 -12 0 -21 5 -21 10 0 6 6 10 14 10 8 0 18 -4 21 -10z m-428 -22 c-3
-8 -6 -5 -6 6 -1 11 2 17 5 13 3 -3 4 -12 1 -19z m-107 -4 c0 -2 -7 -4 -15 -4
-8 0 -15 4 -15 10 0 5 7 7 15 4 8 -4 15 -8 15 -10z m360 1 c0 -8 -4 -15 -10
-15 -5 0 -10 7 -10 15 0 8 5 15 10 15 6 0 10 -7 10 -15z m150 -1 c0 -2 -12 -4
-26 -4 -14 0 -23 4 -20 9 6 8 46 4 46 -5z m-710 -4 c0 -5 -7 -10 -15 -10 -8 0
-15 5 -15 10 0 6 7 10 15 10 8 0 15 -4 15 -10z m107 -22 c-3 -7 -5 -2 -5 12 0
14 2 19 5 13 2 -7 2 -19 0 -25z m170 0 c-3 -8 -6 -5 -6 6 -1 11 2 17 5 13 3
-3 4 -12 1 -19z m163 12 c0 -5 -6 -10 -14 -10 -8 0 -18 5 -21 10 -3 6 3 10 14
10 12 0 21 -4 21 -10z m387 4 c-3 -3 -12 -4 -19 -1 -8 3 -5 6 6 6 11 1 17 -2
13 -5z m-237 -25 c0 -11 -4 -17 -10 -14 -5 3 -10 13 -10 21 0 8 5 14 10 14 6
0 10 -9 10 -21z m-530 -10 c0 -5 -4 -9 -10 -9 -5 0 -10 7 -10 16 0 8 5 12 10
9 6 -3 10 -10 10 -16z m80 6 c0 -8 -4 -15 -10 -15 -5 0 -10 7 -10 15 0 8 5 15
10 15 6 0 10 -7 10 -15z m60 5 c0 -5 -7 -7 -15 -4 -8 4 -15 8 -15 10 0 2 7 4
15 4 8 0 15 -4 15 -10z m-200 -10 c0 -5 -4 -10 -9 -10 -6 0 -13 5 -16 10 -3 6
1 10 9 10 9 0 16 -4 16 -10z m107 -32 c-3 -7 -5 -2 -5 12 0 14 2 19 5 13 2 -7
2 -19 0 -25z m333 22 c0 -5 -6 -10 -14 -10 -8 0 -18 5 -21 10 -3 6 3 10 14 10
12 0 21 -4 21 -10z m80 -6 c0 -8 -4 -12 -10 -9 -5 3 -10 10 -10 16 0 5 5 9 10
9 6 0 10 -7 10 -16z m100 -4 c0 -11 -4 -20 -10 -20 -5 0 -10 9 -10 20 0 11 5
20 10 20 6 0 10 -9 10 -20z m88 3 c-2 -11 -13 -19 -28 -20 -15 -1 -18 0 -7 3
9 3 17 12 17 20 0 8 5 14 11 14 6 0 9 -8 7 -17z m42 -3 c0 -11 -4 -20 -10 -20
-5 0 -10 9 -10 20 0 11 5 20 10 20 6 0 10 -9 10 -20z m40 -5 c0 -8 -4 -15 -10
-15 -5 0 -10 7 -10 15 0 8 5 15 10 15 6 0 10 -7 10 -15z m40 0 c0 -8 -4 -15
-10 -15 -5 0 -10 7 -10 15 0 8 5 15 10 15 6 0 10 -7 10 -15z m40 0 c0 -8 -4
-15 -10 -15 -5 0 -10 7 -10 15 0 8 5 15 10 15 6 0 10 -7 10 -15z m-870 -5 c0
-5 -4 -10 -10 -10 -5 0 -10 5 -10 10 0 6 5 10 10 10 6 0 10 -4 10 -10z m197 4
c-3 -3 -12 -4 -19 -1 -8 3 -5 6 6 6 11 1 17 -2 13 -5z m713 -4 c0 -5 -4 -10
-10 -10 -5 0 -10 5 -10 10 0 6 5 10 10 10 6 0 10 -4 10 -10z m40 0 c0 -5 -4
-10 -10 -10 -5 0 -10 5 -10 10 0 6 5 10 10 10 6 0 10 -4 10 -10z m-863 -32
c-3 -7 -5 -2 -5 12 0 14 2 19 5 13 2 -7 2 -19 0 -25z m353 22 c0 -5 -9 -10
-21 -10 -11 0 -17 5 -14 10 3 6 13 10 21 10 8 0 14 -4 14 -10z m150 -5 c0 -8
-4 -15 -10 -15 -5 0 -10 7 -10 15 0 8 5 15 10 15 6 0 10 -7 10 -15z m-585 -15
c3 -5 -1 -10 -9 -10 -9 0 -16 5 -16 10 0 6 4 10 9 10 6 0 13 -4 16 -10z m192
4 c-3 -3 -12 -4 -19 -1 -8 3 -5 6 6 6 11 1 17 -2 13 -5z m363 -14 c0 -11 -4
-20 -10 -20 -5 0 -10 9 -10 20 0 11 5 20 10 20 6 0 10 -9 10 -20z m-490 -11
c0 -5 -4 -9 -10 -9 -5 0 -10 7 -10 16 0 8 5 12 10 9 6 -3 10 -10 10 -16z m615
11 c3 -5 -1 -10 -9 -10 -9 0 -16 5 -16 10 0 6 4 10 9 10 6 0 13 -4 16 -10z
m-348 -22 c-3 -8 -6 -5 -6 6 -1 11 2 17 5 13 3 -3 4 -12 1 -19z m103 12 c0 -5
-9 -10 -20 -10 -11 0 -20 5 -20 10 0 6 9 10 20 10 11 0 20 -4 20 -10z m390 -6
c0 -2 -7 -4 -15 -4 -8 0 -15 4 -15 10 0 5 7 7 15 4 8 -4 15 -8 15 -10z m-630
-4 c0 -5 -4 -10 -9 -10 -6 0 -13 5 -16 10 -3 6 1 10 9 10 9 0 16 -4 16 -10z
m323 -5 c4 -8 2 -17 -3 -20 -6 -4 -10 3 -10 14 0 25 6 27 13 6z m-518 -5 c-3
-5 -10 -10 -16 -10 -5 0 -9 5 -9 10 0 6 7 10 16 10 8 0 12 -4 9 -10z m32 -12
c-3 -8 -6 -5 -6 6 -1 11 2 17 5 13 3 -3 4 -12 1 -19z m210 -10 c-3 -7 -5 -2
-5 12 0 14 2 19 5 13 2 -7 2 -19 0 -25z m188 11 c10 -15 -1 -23 -20 -15 -9 3
-13 10 -10 16 8 13 22 13 30 -1z m52 -21 c-3 -7 -5 -2 -5 12 0 14 2 19 5 13 2
-7 2 -19 0 -25z m200 26 c-3 -3 -12 -4 -19 -1 -8 3 -5 6 6 6 11 1 17 -2 13 -5z
m173 -4 c0 -5 -6 -10 -14 -10 -8 0 -18 5 -21 10 -3 6 3 10 14 10 12 0 21 -4
21 -10z m90 0 c0 -5 -4 -10 -10 -10 -5 0 -10 5 -10 10 0 6 5 10 10 10 6 0 10
-4 10 -10z m-1070 -14 c0 -3 -4 -8 -10 -11 -5 -3 -10 -1 -10 4 0 6 5 11 10 11
6 0 10 -2 10 -4z m125 -6 c-3 -5 -10 -10 -16 -10 -5 0 -9 5 -9 10 0 6 7 10 16
10 8 0 12 -4 9 -10z m192 4 c-3 -3 -12 -4 -19 -1 -8 3 -5 6 6 6 11 1 17 -2 13
-5z m80 -26 c-3 -7 -5 -2 -5 12 0 14 2 19 5 13 2 -7 2 -19 0 -25z m467 7 c-4
-8 -8 -15 -10 -15 -2 0 -4 7 -4 15 0 8 4 15 10 15 5 0 7 -7 4 -15z m139 8 c-7
-2 -19 -2 -25 0 -7 3 -2 5 12 5 14 0 19 -2 13 -5z m-989 -18 c-4 -8 -8 -15
-10 -15 -2 0 -4 7 -4 15 0 8 4 15 10 15 5 0 7 -7 4 -15z m546 5 c0 -5 -7 -10
-15 -10 -8 0 -15 5 -15 10 0 6 7 10 15 10 8 0 15 -4 15 -10z m-440 -10 c0 -5
-7 -10 -15 -10 -8 0 -15 5 -15 10 0 6 7 10 15 10 8 0 15 -4 15 -10z m200 6 c0
-3 -4 -8 -10 -11 -5 -3 -10 -1 -10 4 0 6 5 11 10 11 6 0 10 -2 10 -4z m107
-18 c-3 -8 -6 -5 -6 6 -1 11 2 17 5 13 3 -3 4 -12 1 -19z m460 0 c-3 -8 -6 -5
-6 6 -1 11 2 17 5 13 3 -3 4 -12 1 -19z m146 15 c-7 -2 -19 -2 -25 0 -7 3 -2
5 12 5 14 0 19 -2 13 -5z m-236 -9 c-3 -3 -12 -4 -19 -1 -8 3 -5 6 6 6 11 1
17 -2 13 -5z m115 -26 c-7 -7 -12 -8 -12 -2 0 14 12 26 19 19 2 -3 -1 -11 -7
-17z m148 12 c0 -5 -7 -10 -15 -10 -8 0 -15 5 -15 10 0 6 7 10 15 10 8 0 15
-4 15 -10z m-950 -10 c0 -5 -7 -10 -16 -10 -8 0 -12 5 -9 10 3 6 10 10 16 10
5 0 9 -4 9 -10z m350 -5 c0 -8 -4 -15 -10 -15 -5 0 -7 7 -4 15 4 8 8 15 10 15
2 0 4 -7 4 -15z m100 5 c0 -5 -6 -10 -14 -10 -8 0 -18 5 -21 10 -3 6 3 10 14
10 12 0 21 -4 21 -10z m380 -25 c-7 -9 -15 -13 -17 -11 -7 7 7 26 19 26 6 0 6
-6 -2 -15z m-920 -5 c0 -5 -5 -10 -11 -10 -5 0 -7 5 -4 10 3 6 8 10 11 10 2 0
4 -4 4 -10z m80 0 c0 -5 -7 -10 -16 -10 -8 0 -12 5 -9 10 3 6 10 10 16 10 5 0
9 -4 9 -10z m290 0 c0 -5 -5 -10 -11 -10 -5 0 -7 5 -4 10 3 6 8 10 11 10 2 0
4 -4 4 -10z m90 0 c0 -5 -5 -10 -11 -10 -5 0 -7 5 -4 10 3 6 8 10 11 10 2 0 4
-4 4 -10z m63 3 c-7 -2 -19 -2 -25 0 -7 3 -2 5 12 5 14 0 19 -2 13 -5z m327
-13 c0 -5 -4 -10 -10 -10 -5 0 -10 5 -10 10 0 6 5 10 10 10 6 0 10 -4 10 -10z
m90 -5 c0 -8 -4 -15 -10 -15 -5 0 -7 7 -4 15 4 8 8 15 10 15 2 0 4 -7 4 -15z
m100 1 c0 -14 -21 -26 -46 -26 -21 0 -17 14 9 26 31 16 37 16 37 0z m-620 -6
c0 -5 -5 -10 -11 -10 -5 0 -7 5 -4 10 3 6 8 10 11 10 2 0 4 -4 4 -10z m-353
-6 c-3 -3 -12 -4 -19 -1 -8 3 -5 6 6 6 11 1 17 -2 13 -5z m440 0 c-3 -3 -12
-4 -19 -1 -8 3 -5 6 6 6 11 1 17 -2 13 -5z m240 0 c-3 -3 -12 -4 -19 -1 -8 3
-5 6 6 6 11 1 17 -2 13 -5z m-367 -14 c0 -5 -5 -10 -11 -10 -5 0 -7 5 -4 10 3
6 8 10 11 10 2 0 4 -4 4 -10z m524 -5 c-4 -8 -10 -12 -15 -9 -11 6 -2 24 11
24 5 0 7 -7 4 -15z m-854 -3 c0 -5 -7 -9 -15 -9 -8 0 -15 4 -15 9 0 4 7 8 15
8 8 0 15 -4 15 -8z m450 -1 c0 -10 -26 -9 -36 2 -4 4 2 7 14 7 12 0 22 -4 22
-9z m-410 -5 c0 -3 -4 -8 -10 -11 -5 -3 -10 -1 -10 4 0 6 5 11 10 11 6 0 10
-2 10 -4z m250 0 c0 -3 -4 -8 -10 -11 -5 -3 -10 -1 -10 4 0 6 5 11 10 11 6 0
10 -2 10 -4z m397 -2 c-3 -3 -12 -4 -19 -1 -8 3 -5 6 6 6 11 1 17 -2 13 -5z
m119 -21 c-10 -10 -19 5 -10 18 6 11 8 11 12 0 2 -7 1 -15 -2 -18z m152 16
c-2 -6 -7 -10 -11 -10 -4 1 -14 1 -23 1 -8 0 -12 5 -9 10 8 13 48 13 43 -1z
m-715 -14 c-3 -9 -8 -14 -10 -11 -3 3 -2 9 2 15 9 16 15 13 8 -4z m-260 -2
c-7 -2 -19 -2 -25 0 -7 3 -2 5 12 5 14 0 19 -2 13 -5z m450 0 c-7 -2 -19 -2
-25 0 -7 3 -2 5 12 5 14 0 19 -2 13 -5z m43 -20 c-10 -10 -19 5 -10 18 6 11 8
11 12 0 2 -7 1 -15 -2 -18z m285 -6 c-8 -8 -11 -7 -11 4 0 20 13 34 18 19 3
-7 -1 -17 -7 -23z m-81 19 c0 -2 -7 -6 -15 -10 -8 -3 -15 -1 -15 4 0 6 7 10
15 10 8 0 15 -2 15 -4z m-710 -16 c0 -5 -7 -10 -16 -10 -8 0 -12 5 -9 10 3 6
10 10 16 10 5 0 9 -4 9 -10z m94 -5 c-4 -8 -8 -15 -10 -15 -2 0 -4 7 -4 15 0
8 4 15 10 15 5 0 7 -7 4 -15z m356 -1 c0 -2 -7 -4 -15 -4 -8 0 -15 4 -15 10 0
5 7 7 15 4 8 -4 15 -8 15 -10z m530 6 c0 -5 -9 -10 -19 -10 -11 0 -23 5 -26
10 -4 6 5 10 19 10 14 0 26 -4 26 -10z m-773 -6 c-3 -3 -12 -4 -19 -1 -8 3 -5
6 6 6 11 1 17 -2 13 -5z m314 -27 c-8 -8 -11 -7 -11 4 0 20 13 34 18 19 3 -7
-1 -17 -7 -23z m239 18 c0 -8 -4 -15 -10 -15 -5 0 -10 7 -10 15 0 8 5 15 10
15 6 0 10 -7 10 -15z m-75 -5 c3 -5 1 -10 -4 -10 -6 0 -11 5 -11 10 0 6 2 10
4 10 3 0 8 -4 11 -10z m-865 -10 c0 -5 -2 -10 -4 -10 -3 0 -8 5 -11 10 -3 6
-1 10 4 10 6 0 11 -4 11 -10z m291 -23 c-8 -8 -11 -7 -11 4 0 20 13 34 18 19
3 -7 -1 -17 -7 -23z m853 24 c8 -13 -3 -19 -24 -14 -11 3 -17 9 -14 14 7 11
31 12 38 0z m56 -5 c0 -8 -4 -18 -10 -21 -5 -3 -10 3 -10 14 0 12 5 21 10 21
6 0 10 -6 10 -14z m-1025 -6 c-3 -5 -10 -10 -16 -10 -5 0 -9 5 -9 10 0 6 7 10
16 10 8 0 12 -4 9 -10z m445 0 c0 -5 -7 -10 -15 -10 -8 0 -15 5 -15 10 0 6 7
10 15 10 8 0 15 -4 15 -10z m114 -5 c-4 -8 -8 -15 -10 -15 -2 0 -4 7 -4 15 0
8 4 15 10 15 5 0 7 -7 4 -15z m296 1 c0 -3 -4 -8 -10 -11 -5 -3 -10 -1 -10 4
0 6 5 11 10 11 6 0 10 -2 10 -4z m-790 -16 c0 -5 -4 -10 -10 -10 -5 0 -10 5
-10 10 0 6 5 10 10 10 6 0 10 -4 10 -10z m76 -17 c-10 -10 -19 5 -10 18 6 11
8 11 12 0 2 -7 1 -15 -2 -18z m541 21 c-3 -3 -12 -4 -19 -1 -8 3 -5 6 6 6 11
1 17 -2 13 -5z m-677 -14 c0 -5 -7 -10 -15 -10 -8 0 -15 5 -15 10 0 6 7 10 15
10 8 0 15 -4 15 -10z m195 0 c-3 -5 -10 -10 -16 -10 -5 0 -9 5 -9 10 0 6 7 10
16 10 8 0 12 -4 9 -10z m240 0 c3 -5 -3 -10 -14 -10 -12 0 -21 5 -21 10 0 6 6
10 14 10 8 0 18 -4 21 -10z m137 -12 c-7 -7 -12 -8 -12 -2 0 14 12 26 19 19 2
-3 -1 -11 -7 -17z m388 12 c0 -5 -9 -10 -19 -10 -11 0 -23 5 -26 10 -4 6 5 10
19 10 14 0 26 -4 26 -10z m-853 -32 c-3 -8 -6 -5 -6 6 -1 11 2 17 5 13 3 -3 4
-12 1 -19z m560 16 c-3 -3 -12 -4 -19 -1 -8 3 -5 6 6 6 11 1 17 -2 13 -5z
m-677 -14 c0 -5 -8 -10 -17 -10 -15 0 -16 2 -3 10 19 12 20 12 20 0z m520 6
c0 -3 -4 -8 -10 -11 -5 -3 -10 -1 -10 4 0 6 5 11 10 11 6 0 10 -2 10 -4z m90
-6 c0 -5 -4 -10 -10 -10 -5 0 -10 5 -10 10 0 6 5 10 10 10 6 0 10 -4 10 -10z
m350 0 c0 -5 -11 -10 -25 -10 -14 0 -25 5 -25 10 0 6 11 10 25 10 14 0 25 -4
25 -10z m-873 -22 c-3 -8 -6 -5 -6 6 -1 11 2 17 5 13 3 -3 4 -12 1 -19z m346
15 c-7 -2 -19 -2 -25 0 -7 3 -2 5 12 5 14 0 19 -2 13 -5z m501 -19 c22 -9 20
-24 -3 -24 -21 0 -34 13 -24 24 8 7 8 7 27 0z m-939 -14 c-3 -5 -10 -10 -16
-10 -5 0 -9 5 -9 10 0 6 7 10 16 10 8 0 12 -4 9 -10z m62 -12 c-3 -8 -6 -5 -6
6 -1 11 2 17 5 13 3 -3 4 -12 1 -19z m360 16 c-3 -3 -12 -4 -19 -1 -8 3 -5 6
6 6 11 1 17 -2 13 -5z m-390 -36 c-3 -8 -6 -5 -6 6 -1 11 2 17 5 13 3 -3 4
-12 1 -19z m608 4 c-3 -3 -11 0 -18 7 -9 10 -8 11 6 5 10 -3 15 -9 12 -12z
m395 10 c0 -13 -12 -22 -22 -16 -10 6 -1 24 13 24 5 0 9 -4 9 -8z m-1040 -12
c0 -5 -7 -10 -16 -10 -8 0 -12 5 -9 10 3 6 10 10 16 10 5 0 9 -4 9 -10z m784
-5 c-4 -8 -8 -15 -10 -15 -2 0 -4 7 -4 15 0 8 4 15 10 15 5 0 7 -7 4 -15z
m164 4 c-2 -6 -7 -10 -11 -10 -4 1 -14 1 -22 1 -8 0 -15 5 -15 10 0 6 12 10
26 10 14 0 24 -5 22 -11z m-313 -19 c3 -5 -1 -10 -9 -10 -9 0 -16 5 -16 10 0
6 4 10 9 10 6 0 13 -4 16 -10z m-650 -10 c3 -5 -1 -10 -10 -10 -9 0 -13 5 -10
10 3 6 8 10 10 10 2 0 7 -4 10 -10z m267 -12 c-7 -7 -12 -8 -12 -2 0 14 12 26
19 19 2 -3 -1 -11 -7 -17z m91 15 c-7 -2 -19 -2 -25 0 -7 3 -2 5 12 5 14 0 19
-2 13 -5z m354 -18 c-4 -8 -11 -15 -17 -15 -7 0 -7 6 0 21 13 23 26 19 17 -6z
m236 15 c8 0 8 -3 0 -11 -13 -13 -43 -5 -43 12 0 6 7 8 16 5 9 -3 21 -6 27 -6z
m-1049 -24 c-3 -8 -1 -17 5 -21 6 -3 11 -11 11 -18 0 -6 -7 -1 -16 11 -8 12
-12 27 -9 32 9 15 15 12 9 -4z m330 -1 c-4 -8 -10 -15 -15 -15 -4 0 -6 7 -3
15 4 8 10 15 15 15 4 0 6 -7 3 -15z m116 5 c0 -5 -9 -10 -20 -10 -11 0 -20 5
-20 10 0 6 9 10 20 10 11 0 20 -4 20 -10z m100 6 c0 -3 -4 -8 -10 -11 -5 -3
-10 -1 -10 4 0 6 5 11 10 11 6 0 10 -2 10 -4z m190 -12 c0 -2 -7 -4 -15 -4 -8
0 -15 4 -15 10 0 5 7 7 15 4 8 -4 15 -8 15 -10z m422 -6 c-7 -7 -12 -8 -12 -2
0 14 12 26 19 19 2 -3 -1 -11 -7 -17z m-868 -12 c-6 -16 -24 -23 -24 -8 0 10
22 33 27 28 2 -2 1 -11 -3 -20z m534 -15 c-7 -11 -18 -23 -25 -26 -7 -2 -3 9
9 25 24 33 37 34 16 1z m204 17 c-9 -9 -15 -9 -24 0 -9 9 -7 12 12 12 19 0 21
-3 12 -12z m93 2 c-3 -5 -11 -10 -16 -10 -6 0 -7 5 -4 10 3 6 11 10 16 10 6 0
7 -4 4 -10z m-879 -37 c-11 -11 -17 4 -9 23 7 18 8 18 11 1 2 -10 1 -21 -2
-24z m184 27 c0 -5 -7 -10 -15 -10 -8 0 -15 5 -15 10 0 6 7 10 15 10 8 0 15
-4 15 -10z m600 -31 c0 -6 -4 -7 -10 -4 -5 3 -10 11 -10 16 0 6 5 7 10 4 6 -3
10 -11 10 -16z m-810 1 c0 -5 -4 -10 -10 -10 -5 0 -10 5 -10 10 0 6 5 10 10
10 6 0 10 -4 10 -10z m778 -8 c6 -18 -15 -14 -22 4 -4 10 -1 14 6 12 6 -2 14
-10 16 -16z m-518 -1 c0 -5 -7 -11 -15 -15 -15 -5 -20 5 -8 17 9 10 23 9 23
-2z m32 -13 c-7 -7 -12 -8 -12 -2 0 14 12 26 19 19 2 -3 -1 -11 -7 -17z m451
-11 c-3 -5 -10 -4 -15 1 -6 6 -7 16 -3 22 6 9 9 9 16 -1 4 -7 5 -17 2 -22z
m-608 13 c-3 -5 -12 -7 -20 -3 -21 7 -19 13 6 13 11 0 18 -4 14 -10z m70 0
c-3 -5 -11 -10 -16 -10 -6 0 -7 5 -4 10 3 6 11 10 16 10 6 0 7 -4 4 -10z m140
0 c-3 -5 -11 -10 -16 -10 -6 0 -7 5 -4 10 3 6 11 10 16 10 6 0 7 -4 4 -10z
m365 -21 c0 -11 -4 -17 -10 -14 -5 3 -10 13 -10 21 0 8 5 14 10 14 6 0 10 -9
10 -21z m-595 -10 c-3 -4 -12 -6 -20 -3 -8 4 -13 10 -10 15 3 4 12 6 20 3 8
-4 13 -10 10 -15z m-302 -4 c-3 -9 -8 -14 -10 -11 -3 3 -2 9 2 15 9 16 15 13
8 -4z m407 11 c0 -2 -7 -9 -15 -16 -12 -10 -15 -10 -15 4 0 9 7 16 15 16 8 0
15 -2 15 -4z m193 -3 c-7 -2 -19 -2 -25 0 -7 3 -2 5 12 5 14 0 19 -2 13 -5z
m172 -12 c-3 -6 -11 -11 -17 -11 -6 0 -6 6 2 15 14 17 26 13 15 -4z m101 -8
c-7 -7 -26 7 -26 19 0 6 6 6 15 -2 9 -7 13 -15 11 -17z m-849 -15 c-3 -8 -6
-5 -6 6 -1 11 2 17 5 13 3 -3 4 -12 1 -19z m186 7 c-3 -9 -8 -14 -10 -11 -3 3
-2 9 2 15 9 16 15 13 8 -4z m61 9 c9 -3 14 -10 11 -15 -7 -10 -35 0 -35 12 0
11 3 11 24 3z m572 -21 c-7 -7 -26 7 -26 19 0 6 6 6 15 -2 9 -7 13 -15 11 -17z
m-675 -10 c-8 -15 -10 -15 -11 -2 0 17 10 32 18 25 2 -3 -1 -13 -7 -23z m306
21 c-3 -3 -12 -4 -19 -1 -8 3 -5 6 6 6 11 1 17 -2 13 -5z m100 0 c-3 -3 -12
-4 -19 -1 -8 3 -5 6 6 6 11 1 17 -2 13 -5z m-163 -19 c-6 -16 -24 -21 -24 -7
0 11 11 22 21 22 5 0 6 -7 3 -15z m396 0 c11 -13 10 -14 -4 -9 -9 3 -16 10
-16 15 0 13 6 11 20 -6z m-868 -17 c-7 -7 -12 -8 -12 -2 0 14 12 26 19 19 2
-3 -1 -11 -7 -17z m191 7 c-3 -9 -8 -14 -10 -11 -3 3 -2 9 2 15 9 16 15 13 8
-4z m137 -7 c0 -6 -7 -7 -16 -4 -9 3 -18 6 -20 6 -3 0 -3 4 1 10 7 11 35 2 35
-12z m520 -3 c14 -16 10 -18 -14 -9 -9 3 -16 10 -16 15 0 14 16 11 30 -6z
m-720 -9 c0 -3 -4 -8 -10 -11 -5 -3 -10 -1 -10 4 0 6 5 11 10 11 6 0 10 -2 10
-4z m697 -23 c-8 -7 -37 9 -31 19 3 5 12 4 20 -3 8 -6 13 -14 11 -16z m-817 7
c0 -5 -4 -10 -10 -10 -5 0 -10 5 -10 10 0 6 5 10 10 10 6 0 10 -4 10 -10z
m297 4 c-3 -3 -12 -4 -19 -1 -8 3 -5 6 6 6 11 1 17 -2 13 -5z m173 -9 c-7 -9
-15 -13 -17 -11 -7 7 7 26 19 26 6 0 6 -6 -2 -15z m316 -22 c-7 -7 -26 7 -26
19 0 6 6 6 15 -2 9 -7 13 -15 11 -17z m-674 -5 c-7 -7 -12 -8 -12 -2 0 14 12
26 19 19 2 -3 -1 -11 -7 -17z m74 -5 c-10 -10 -19 5 -10 18 6 11 8 11 12 0 2
-7 1 -15 -2 -18z m94 23 c0 -3 -4 -8 -10 -11 -5 -3 -10 -1 -10 4 0 6 5 11 10
11 6 0 10 -2 10 -4z m-260 -16 c0 -5 -7 -10 -16 -10 -8 0 -12 5 -9 10 3 6 10
10 16 10 5 0 9 -4 9 -10z m465 0 c-3 -5 -11 -10 -16 -10 -6 0 -7 5 -4 10 3 6
11 10 16 10 6 0 7 -4 4 -10z m270 -10 c3 -5 -1 -10 -9 -10 -9 0 -16 5 -16 10
0 6 4 10 9 10 6 0 13 -4 16 -10z m123 -2 c-3 -7 -13 -15 -24 -17 -16 -3 -17
-1 -5 13 16 19 34 21 29 4z m52 3 c0 -12 -20 -25 -27 -18 -7 7 6 27 18 27 5 0
9 -4 9 -9z m42 -13 c-6 -6 -15 -8 -19 -4 -4 4 -1 11 7 16 19 12 27 3 12 -12z
m-152 -3 c-7 -9 -15 -13 -17 -11 -7 7 7 26 19 26 6 0 6 -6 -2 -15z m-680 1 c0
-3 -4 -8 -10 -11 -5 -3 -10 -1 -10 4 0 6 5 11 10 11 6 0 10 -2 10 -4z m587
-22 c-9 -9 -28 6 -21 18 4 6 10 6 17 -1 6 -6 8 -13 4 -17z m-72 -3 c-3 -6 -11
-11 -17 -11 -6 0 -6 6 2 15 14 17 26 13 15 -4z m535 9 c0 -5 -7 -10 -15 -10
-8 0 -15 5 -15 10 0 6 7 10 15 10 8 0 15 -4 15 -10z m-1030 -10 c0 -5 -5 -10
-11 -10 -5 0 -7 5 -4 10 3 6 8 10 11 10 2 0 4 -4 4 -10z m410 -5 c-7 -9 -15
-13 -17 -11 -7 7 7 26 19 26 6 0 6 -6 -2 -15z m40 0 c-7 -9 -15 -13 -17 -11
-7 7 7 26 19 26 6 0 6 -6 -2 -15z m230 6 c0 -13 -26 -32 -33 -24 -8 7 11 33
24 33 5 0 9 -4 9 -9z m-310 -5 c0 -3 -4 -8 -10 -11 -5 -3 -10 -1 -10 4 0 6 5
11 10 11 6 0 10 -2 10 -4z m174 -17 c-6 -11 -24 -2 -24 11 0 5 7 7 15 4 8 -4
12 -10 9 -15z m-214 7 c0 -3 -4 -8 -10 -11 -5 -3 -10 -1 -10 4 0 6 5 11 10 11
6 0 10 -2 10 -4z m585 -16 c-3 -5 -13 -10 -21 -10 -8 0 -12 5 -9 10 3 6 13 10
21 10 8 0 12 -4 9 -10z m80 0 c3 -5 -1 -10 -10 -10 -9 0 -13 5 -10 10 3 6 8
10 10 10 2 0 7 -4 10 -10z m-478 -26 c-9 -9 -28 6 -21 18 4 6 10 6 17 -1 6 -6
8 -13 4 -17z m163 11 c-7 -8 -17 -15 -22 -15 -6 0 -5 7 2 15 7 8 17 15 22 15
6 0 5 -7 -2 -15z m-345 -15 c-3 -5 -11 -10 -16 -10 -6 0 -7 5 -4 10 3 6 11 10
16 10 6 0 7 -4 4 -10z m237 -12 c-7 -7 -12 -8 -12 -2 0 14 12 26 19 19 2 -3
-1 -11 -7 -17z m248 18 c0 -2 -7 -7 -16 -10 -8 -3 -12 -2 -9 4 6 10 25 14 25
6z m-700 -10 c0 -3 -4 -8 -10 -11 -5 -3 -10 -1 -10 4 0 6 5 11 10 11 6 0 10
-2 10 -4z m276 -23 c-10 -10 -19 5 -10 18 6 11 8 11 12 0 2 -7 1 -15 -2 -18z
m102 9 c2 -7 -3 -12 -12 -12 -9 0 -16 7 -16 16 0 17 22 14 28 -4z m407 8 c-3
-5 -11 -10 -16 -10 -6 0 -7 5 -4 10 3 6 11 10 16 10 6 0 7 -4 4 -10z m-215 -4
c0 -2 -7 -7 -16 -10 -8 -3 -12 -2 -9 4 6 10 25 14 25 6z m-495 -26 c3 -5 1
-10 -4 -10 -6 0 -11 5 -11 10 0 6 2 10 4 10 3 0 8 -4 11 -10z m137 -12 c-7 -7
-12 -8 -12 -2 0 14 12 26 19 19 2 -3 -1 -11 -7 -17z m142 -10 c-3 -5 -12 -4
-20 3 -7 6 -11 15 -8 21 3 5 12 4 20 -3 7 -6 11 -15 8 -21z m431 22 c-3 -5
-12 -10 -18 -10 -7 0 -6 4 3 10 19 12 23 12 15 0z m-825 -20 c0 -5 -5 -10 -11
-10 -5 0 -7 5 -4 10 3 6 8 10 11 10 2 0 4 -4 4 -10z m879 1 c8 -5 9 -11 3 -15
-5 -3 -15 1 -22 9 -14 16 -3 20 19 6z m-510 -14 c6 -8 8 -17 4 -20 -7 -8 -33
11 -33 24 0 13 16 11 29 -4z m-534 -6 c3 -5 2 -12 -3 -15 -5 -3 -9 1 -9 9 0
17 3 19 12 6z m430 -11 c-3 -5 -11 -10 -16 -10 -6 0 -7 5 -4 10 3 6 11 10 16
10 6 0 7 -4 4 -10z m585 0 c0 -5 -4 -10 -9 -10 -6 0 -13 5 -16 10 -3 6 1 10 9
10 9 0 16 -4 16 -10z m-885 -10 c3 -5 1 -10 -4 -10 -6 0 -11 5 -11 10 0 6 2
10 4 10 3 0 8 -4 11 -10z m395 -20 c0 -14 -14 -12 -28 2 -19 19 -14 30 8 18
11 -6 20 -15 20 -20z m-98 -12 c-7 -7 -12 -8 -12 -2 0 14 12 26 19 19 2 -3 -1
-11 -7 -17z m563 12 c3 -5 -1 -10 -9 -10 -8 0 -18 5 -21 10 -3 6 1 10 9 10 8
0 18 -4 21 -10z m-485 -30 c0 -14 -14 -12 -28 2 -19 19 -14 30 8 18 11 -6 20
-15 20 -20z m-360 16 c0 -3 -4 -8 -10 -11 -5 -3 -10 -1 -10 4 0 6 5 11 10 11
6 0 10 -2 10 -4z m815 -16 c3 -5 -1 -10 -9 -10 -9 0 -16 5 -16 10 0 6 4 10 9
10 6 0 13 -4 16 -10z m-487 -12 c19 -19 14 -30 -8 -18 -11 6 -20 15 -20 20 0
14 14 12 28 -2z m652 7 c0 -2 -10 -10 -22 -16 -21 -11 -22 -11 -9 4 13 16 31
23 31 12z m-70 -20 c-7 -9 -15 -13 -17 -11 -7 7 7 26 19 26 6 0 6 -6 -2 -15z
m-400 -11 c0 -8 -5 -12 -10 -9 -6 4 -8 11 -5 16 9 14 15 11 15 -7z m280 -4 c0
-5 -7 -7 -15 -4 -8 4 -12 10 -9 15 6 11 24 2 24 -11z m70 -5 c-7 -9 -15 -13
-18 -10 -3 2 1 11 8 20 7 9 15 13 18 10 3 -2 -1 -11 -8 -20z m-544 -12 c-7 -7
-26 7 -26 19 0 6 6 6 15 -2 9 -7 13 -15 11 -17z m-20 -30 c-7 -7 -26 7 -26 19
0 6 6 6 15 -2 9 -7 13 -15 11 -17z m199 17 c-3 -5 -10 -10 -16 -10 -5 0 -9 5
-9 10 0 6 7 10 16 10 8 0 12 -4 9 -10z m270 0 c3 -5 -1 -10 -9 -10 -9 0 -16 5
-16 10 0 6 4 10 9 10 6 0 13 -4 16 -10z m105 -5 c-7 -8 -17 -15 -22 -15 -6 0
-5 7 2 15 7 8 17 15 22 15 6 0 5 -7 -2 -15z m86 -12 c-10 -10 -19 5 -10 18 6
11 8 11 12 0 2 -7 1 -15 -2 -18z m-283 2 c-3 -9 -8 -14 -10 -11 -3 3 -2 9 2
15 9 16 15 13 8 -4z m-42 -22 c-8 -15 -10 -15 -11 -2 0 17 10 32 18 25 2 -3
-1 -13 -7 -23z m-356 6 c11 -17 -1 -21 -15 -4 -8 9 -8 15 -2 15 6 0 14 -5 17
-11z m205 1 c0 -5 -7 -10 -15 -10 -8 0 -15 5 -15 10 0 6 7 10 15 10 8 0 15 -4
15 -10z m112 -12 c-7 -7 -12 -8 -12 -2 0 14 12 26 19 19 2 -3 -1 -11 -7 -17z
m142 6 c3 -8 2 -12 -4 -9 -6 3 -10 10 -10 16 0 14 7 11 14 -7z m-170 -9 c-4
-8 -10 -15 -15 -15 -4 0 -6 7 -3 15 4 8 10 15 15 15 4 0 6 -7 3 -15z m320 0
c-6 -16 -24 -21 -24 -7 0 11 11 22 21 22 5 0 6 -7 3 -15z m-624 -10 c7 -8 8
-15 2 -15 -5 0 -15 7 -22 15 -7 8 -8 15 -2 15 5 0 15 -7 22 -15z m270 6 c0 -6
-4 -13 -10 -16 -5 -3 -10 1 -10 9 0 9 5 16 10 16 6 0 10 -4 10 -9z m-420 -5
c0 -3 -4 -8 -10 -11 -5 -3 -10 -1 -10 4 0 6 5 11 10 11 6 0 10 -2 10 -4z m360
-6 c0 -5 -6 -10 -14 -10 -8 0 -18 5 -21 10 -3 6 3 10 14 10 12 0 21 -4 21 -10z
m-230 -15 c11 -13 10 -14 -6 -8 -17 6 -17 5 -5 -10 12 -16 12 -17 -5 -10 -16
6 -17 5 -6 -9 11 -14 11 -18 -1 -25 -7 -4 -17 -16 -20 -26 -4 -11 -12 -15 -18
-11 -7 4 -9 3 -6 -3 4 -6 0 -16 -8 -23 -28 -23 -28 -1 -2 40 20 29 32 38 44
33 14 -5 15 -3 6 7 -8 9 -9 19 -1 36 13 28 12 28 28 9z m85 5 c-3 -5 -11 -10
-16 -10 -6 0 -7 5 -4 10 3 6 11 10 16 10 6 0 7 -4 4 -10z m40 0 c-3 -5 -11
-10 -16 -10 -6 0 -7 5 -4 10 3 6 11 10 16 10 6 0 7 -4 4 -10z m525 -25 c-7 -9
-15 -13 -18 -10 -3 2 1 11 8 20 7 9 15 13 18 10 3 -2 -1 -11 -8 -20z m-430 3
c0 -4 -9 -8 -20 -8 -11 0 -20 4 -20 9 0 6 9 9 20 8 11 -1 20 -5 20 -9z m76
-14 c-4 -9 -9 -15 -11 -12 -3 3 -3 13 1 22 4 9 9 15 11 12 3 -3 3 -13 -1 -22z
m-196 6 c0 -5 -5 -10 -11 -10 -5 0 -7 5 -4 10 3 6 8 10 11 10 2 0 4 -4 4 -10z
m27 -12 c-3 -8 -6 -5 -6 6 -1 11 2 17 5 13 3 -3 4 -12 1 -19z m229 -15 c-10
-10 -19 5 -10 18 6 11 8 11 12 0 2 -7 1 -15 -2 -18z m-146 7 c0 -5 -7 -10 -15
-10 -8 0 -15 5 -15 10 0 6 7 10 15 10 8 0 15 -4 15 -10z m441 -17 c-12 -20
-14 -14 -5 12 4 9 9 14 11 11 3 -2 0 -13 -6 -23z m84 16 c10 -15 -1 -23 -20
-15 -9 3 -13 10 -10 16 8 13 22 13 30 -1z m-424 -36 c-8 -15 -10 -15 -11 -2 0
17 10 32 18 25 2 -3 -1 -13 -7 -23z m-106 7 c3 -5 -1 -10 -9 -10 -8 0 -18 5
-21 10 -3 6 1 10 9 10 8 0 18 -4 21 -10z m245 0 c0 -5 -2 -10 -4 -10 -3 0 -8
5 -11 10 -3 6 -1 10 4 10 6 0 11 -4 11 -10z m265 -11 c10 -15 -1 -23 -20 -15
-9 3 -13 10 -10 16 8 13 22 13 30 -1z m-515 -19 c0 -5 -7 -7 -15 -4 -8 4 -15
8 -15 10 0 2 7 4 15 4 8 0 15 -4 15 -10z m-110 -10 c0 -5 -2 -10 -4 -10 -3 0
-8 5 -11 10 -3 6 -1 10 4 10 6 0 11 -4 11 -10z m237 -22 c-3 -7 -5 -2 -5 12 0
14 2 19 5 13 2 -7 2 -19 0 -25z m-142 12 c3 -5 1 -10 -4 -10 -6 0 -11 5 -11
10 0 6 2 10 4 10 3 0 8 -4 11 -10z m510 -1 c10 -14 1 -21 -19 -13 -9 3 -13 10
-10 15 7 12 21 11 29 -2z m-580 -19 c3 -5 1 -10 -4 -10 -6 0 -11 5 -11 10 0 6
2 10 4 10 3 0 8 -4 11 -10z m563 -29 c3 -8 -1 -12 -9 -9 -7 2 -15 10 -17 17
-3 8 1 12 9 9 7 -2 15 -10 17 -17z"/>
<path d="M1845 3920 c-5 -57 -4 -85 5 -95 6 -7 42 -24 78 -36 64 -21 102 -43
102 -60 0 -5 -12 -19 -26 -32 -16 -15 -22 -27 -16 -31 6 -3 13 -2 17 4 10 16
25 12 25 -7 1 -37 101 -83 170 -78 52 4 57 8 65 55 4 22 9 40 13 40 3 0 31 -7
63 -16 56 -16 57 -16 88 7 18 13 34 32 36 44 4 18 35 265 35 279 0 3 -34 6
-75 6 -69 0 -75 -2 -75 -21 0 -29 -18 -59 -35 -59 -8 0 -15 7 -15 16 0 13 -5
12 -29 -5 l-29 -21 9 35 c6 19 7 40 4 45 -9 15 -92 12 -98 -2 -4 -10 -6 -10
-6 0 -1 9 -38 12 -150 12 l-149 0 -7 -80z m322 28 c-3 -8 -6 -5 -6 6 -1 11 2
17 5 13 3 -3 4 -12 1 -19z m23 -28 c0 -5 -2 -10 -4 -10 -3 0 -8 5 -11 10 -3 6
-1 10 4 10 6 0 11 -4 11 -10z m-162 -37 c-10 -2 -26 -2 -35 0 -10 3 -2 5 17 5
19 0 27 -2 18 -5z m92 -12 c0 -4 -11 -6 -25 -3 -14 2 -25 6 -25 8 0 2 11 4 25
4 14 0 25 -4 25 -9z"/>
<path d="M2280 3991 c0 -5 5 -13 10 -16 6 -3 10 -2 10 4 0 5 -4 13 -10 16 -5
3 -10 2 -10 -4z"/>
<path d="M1850 3721 c0 -9 30 -24 36 -18 2 1 -6 8 -16 15 -11 7 -20 8 -20 3z"/>
<path d="M2156 3528 c39 -44 42 -46 169 -99 227 -96 289 -127 297 -148 4 -12
3 -21 -2 -21 -5 0 -87 34 -182 75 -95 41 -175 72 -178 68 -3 -3 15 -23 40 -45
31 -27 93 -59 199 -103 85 -36 163 -65 174 -65 23 0 20 29 -12 101 l-21 46
-247 112 c-137 61 -252 111 -257 111 -6 0 3 -15 20 -32z"/>
<path d="M1690 3240 c0 -5 4 -10 9 -10 6 0 13 5 16 10 3 6 -1 10 -9 10 -9 0
-16 -4 -16 -10z"/>
<path d="M2450 2933 c0 -9 -14 -38 -31 -65 -26 -39 -30 -54 -25 -83 5 -26 2
-42 -13 -62 -11 -16 -29 -71 -41 -123 -11 -53 -30 -111 -41 -129 l-20 -32 28
14 c15 8 54 23 86 33 142 44 208 175 161 320 -9 27 -31 64 -50 82 -19 18 -34
40 -34 48 0 8 -4 14 -10 14 -5 0 -10 -7 -10 -17z m30 -233 c0 -5 -4 -10 -10
-10 -5 0 -10 5 -10 10 0 6 5 10 10 10 6 0 10 -4 10 -10z m-10 -54 c0 -11 -19
-15 -25 -6 -3 5 1 10 9 10 9 0 16 -2 16 -4z m-21 -30 c10 -12 8 -13 -8 -9 -12
3 -21 9 -21 14 0 14 16 11 29 -5z m-19 -26 c0 -5 -4 -10 -10 -10 -5 0 -10 5
-10 10 0 6 5 10 10 10 6 0 10 -4 10 -10z"/>
<path d="M1552 2850 c9 -27 28 -50 28 -35 0 9 -30 65 -35 65 -2 0 1 -14 7 -30z"/>
<path d="M3045 2710 c16 -17 71 -40 99 -40 16 0 -28 29 -44 30 -8 0 -28 7 -44
15 -30 16 -30 16 -11 -5z"/>
<path d="M1385 2490 c3 -5 8 -10 11 -10 2 0 4 5 4 10 0 6 -5 10 -11 10 -5 0
-7 -4 -4 -10z"/>
<path d="M1105 2450 c3 -5 8 -10 11 -10 2 0 4 5 4 10 0 6 -5 10 -11 10 -5 0
-7 -4 -4 -10z"/>
<path d="M1697 2146 c20 -26 27 -28 17 -3 -3 8 -12 18 -20 21 -11 4 -10 0 3
-18z"/>
<path d="M2428 2053 c7 -3 16 -2 19 1 4 3 -2 6 -13 5 -11 0 -14 -3 -6 -6z"/>
<path d="M1057 1861 c-3 -13 2 -21 16 -25 14 -3 17 -2 9 6 -6 6 -8 17 -5 24 3
8 1 14 -5 14 -5 0 -12 -9 -15 -19z"/>
<path d="M1515 1870 c3 -5 8 -10 11 -10 2 0 4 5 4 10 0 6 -5 10 -11 10 -5 0
-7 -4 -4 -10z"/>
<path d="M1080 1810 c0 -5 5 -10 10 -10 6 0 10 5 10 10 0 6 -4 10 -10 10 -5 0
-10 -4 -10 -10z"/>
<path d="M1470 1790 c-13 -8 -12 -10 3 -10 9 0 17 5 17 10 0 12 -1 12 -20 0z"/>
<path d="M1368 1733 c7 -3 16 -2 19 1 4 3 -2 6 -13 5 -11 0 -14 -3 -6 -6z"/>
</g>
</svg>
